<svg width="172" height="182" viewBox="0 0 172 182" fill="none" xmlns="http://www.w3.org/2000/svg">
<path d="M209.949 67.7693C235.661 56.9205 269.789 61.1365 290.331 77.6997C292.584 79.516 294.785 81.6427 295.097 84.2037C295.71 89.2322 289.062 92.7385 283.099 94.2361C265.302 98.7067 246.163 96.469 227.529 96.5655C208.894 96.6615 188.329 100.069 177.233 112.186C182.78 114.081 189.068 112.384 194.887 111.132C220.185 105.691 248.28 109.448 270.072 121.187C274.755 123.709 279.269 126.686 281.983 130.674C284.697 134.662 285.289 139.852 282.24 143.678C277.257 149.933 266.073 149.728 256.949 148.798C235.92 146.657 214.721 144.485 194.661 138.946C187.812 137.054 181.049 134.763 173.873 134.006C166.697 133.251 158.831 134.261 153.52 138.239C150.151 140.762 148.069 144.974 150.26 148.239C152.334 151.329 157.177 152.297 161.486 152.752C174.636 154.142 188.051 153.693 201.078 155.695C215.397 157.897 228.996 163.093 240.195 170.641C244.729 173.697 248.973 177.251 251.198 181.673C253.424 186.094 253.285 191.535 249.614 195.273C244.355 200.63 234.342 200.678 226.087 199.201C204.588 195.357 186.012 184.757 165.785 177.72C145.557 170.682 120.434 167.698 102.769 178.333C100.422 179.747 98.0976 181.665 98.0996 184.032C98.1016 185.617 99.1785 187.083 100.505 188.25C107.245 194.184 118.759 193.431 128.719 193.411C152.812 193.363 176.823 200.626 194.971 213.452C197.943 215.551 200.94 218.083 201.282 221.264C201.71 225.249 197.594 228.808 192.915 230.098C188.235 231.387 183.134 230.943 178.223 230.485C161.501 228.922 144.558 227.316 128.892 222.332C123.783 220.707 118.768 218.714 113.34 218.065C106.689 217.269 99.9408 218.551 93.488 220.08C79.6883 223.35 66.3139 227.793 53.6568 233.315C46.7064 236.347 39.6116 239.791 31.7231 240.063C20.9723 240.432 11.168 234.71 4.6576 227.777C2.21694 225.177 0.0298239 222.189 0.00031046 218.924C-0.0239327 216.273 1.37578 213.767 2.74816 211.36C8.16758 201.854 13.5876 192.347 19.007 182.84C22.2667 177.122 25.5742 171.264 26.2973 164.994C27.1417 157.672 24.3979 150.426 21.6864 143.408C16.4836 129.941 11.2808 116.474 6.07797 103.007C4.29926 98.4029 2.4999 93.6684 2.89728 88.8552C3.29519 84.042 6.38996 79.0613 11.8926 77.2071C20.3272 74.365 29.5154 79.8443 34.9548 85.7858C53.8572 106.432 53.544 134.333 63.1597 158.821C64.239 161.57 66.2591 164.788 69.8229 164.828C71.7265 164.849 73.4356 163.882 74.7659 162.779C80.0092 158.433 81.2272 151.914 81.5814 145.846C82.8183 124.66 76.6205 103.221 63.8965 84.6789C58.2821 76.4969 51.3627 68.7457 48.073 59.7728C44.7832 50.8 46.015 39.9072 54.7489 33.7731C57.7851 31.6408 61.7842 30.1879 65.7748 30.5821C69.444 30.9443 72.6172 32.7826 75.4167 34.7363C86.8317 42.7015 94.9726 53.6898 98.2765 65.5918C102.785 81.8308 98.901 100.289 110.575 113.991C112.428 116.165 114.941 118.281 118.185 118.576C124.781 119.178 128.356 112.465 128.945 107.114C132.136 78.1536 112.231 50.1192 114.278 21.091C114.726 14.7402 118.942 6.67843 126.737 7.49313C129.105 7.74053 131.201 8.84614 133.038 10.0793C146.436 19.0696 149.242 34.6167 150.063 48.6864C150.883 62.756 151.086 77.9279 161.47 89.2318C167.202 88.528 171.297 84.074 172.537 79.4904C173.779 74.9071 172.807 70.1503 172.126 65.4907C169.592 48.1536 171.176 30.4286 176.77 13.5676C178.406 8.63628 181.305 3.04382 187.436 1.84438C190.622 1.22119 193.998 2.00092 196.9 3.2362C211.25 9.34861 214.973 24.5717 214.644 37.6939C214.386 47.9839 212.651 58.2496 209.484 68.2175L209.949 67.7693Z" fill="#EC7C30"/>
</svg>
